<?xml version="1.0" encoding="utf-8"?>
<!-- Generator: Adobe Illustrator 23.0.1, SVG Export Plug-In . SVG Version: 6.00 Build 0)  -->
<svg version="1.1" xmlns="http://www.w3.org/2000/svg" xmlns:xlink="http://www.w3.org/1999/xlink" x="0px" y="0px"
	 viewBox="0 0 296 296" style="enable-background:new 0 0 296 296;" xml:space="preserve">
<style type="text/css">
	.st0{fill:#C3CCFF;}
	.st1{fill:#F2CC0F;stroke:#272727;stroke-width:10;stroke-miterlimit:10;}
	.st2{fill:#C9C9C9;stroke:#272727;stroke-width:10;stroke-miterlimit:10;}
	.st3{fill:#CEA600;}
	.st4{fill:none;stroke:#222222;stroke-width:10;stroke-miterlimit:10;}
	.st5{fill:#FCE68B;}
</style>
<g id="Слой_1">
</g>
<g id="Слой_2">
</g>
<g id="Слой_3">
</g>
<g id="Слой_4">
	<rect x="6" y="7" class="st1" width="230" height="244"/>
	<polygon class="st1" points="272,21 257,21 236,21 236,77 257,77 257,291 290,291 290,21 	"/>
	<rect x="148" y="17" class="st3" width="78" height="222"/>
	<rect x="271" y="28" class="st3" width="11" height="255"/>
	<g>
		<g>
			<path class="st5" d="M75,208c0-45.83,0-91.66,0-137.49c0-6.5,0-13.01,0-19.51c0-12.87-20-12.89-20,0c0,45.83,0,91.66,0,137.49
				c0,6.5,0,13.01,0,19.51C55,220.87,75,220.89,75,208L75,208z"/>
		</g>
	</g>
</g>
</svg>
