<?xml version="1.0" encoding="utf-8"?>
<!-- Generator: Adobe Illustrator 23.0.1, SVG Export Plug-In . SVG Version: 6.00 Build 0)  -->
<svg version="1.1" xmlns="http://www.w3.org/2000/svg" xmlns:xlink="http://www.w3.org/1999/xlink" x="0px" y="0px"
	 viewBox="0 0 306 570" style="enable-background:new 0 0 306 570;" xml:space="preserve">
<style type="text/css">
	.st0{fill:#C3CCFF;}
	.st1{fill:#F2CC0F;stroke:#272727;stroke-width:10;stroke-miterlimit:10;}
	.st2{fill:#C9C9C9;stroke:#272727;stroke-width:10;stroke-miterlimit:10;}
	.st3{fill:#CEA600;}
	.st4{fill:none;stroke:#222222;stroke-width:10;stroke-miterlimit:10;}
	.st5{fill:#FCE68B;}
	.st6{fill:#FF8603;}
	.st7{fill:#272727;}
	.st8{fill:#FFC68D;}
</style>
<g id="Слой_1">
</g>
<g id="Слой_2">
</g>
<g id="Слой_3">
</g>
<g id="Слой_4">
</g>
<g id="Слой_5">
	<g>
		<path class="st6" d="M300,187C300,86.76,234.19,5.5,153,5.5S6,86.76,6,187c0,93.57,57.35,170.59,131.01,180.43l-19.07,19.07h71.12
			l-19.2-19.2C243.11,356.97,300,280.2,300,187z"/>
		<g>
			<path class="st7" d="M305,187c-0.18-53.06-18.4-107.48-56.65-145.29C214.35,8.1,165.56-7.95,118.8,5.23
				C70.81,18.77,35.38,58.8,16.94,103.81c-21.18,51.7-21.43,112.73-0.71,164.61c18.25,45.72,53.89,86.57,102.49,100.31
				c5.57,1.57,11.23,2.72,16.97,3.52c-0.74-2.79-1.47-5.57-2.21-8.36c-6.36,6.36-12.72,12.72-19.07,19.07
				c-3.06,3.06-0.8,8.54,3.54,8.54c23.71,0,47.42,0,71.12,0c4.33,0,6.6-5.47,3.54-8.54c-6.4-6.4-12.8-12.8-19.2-19.2
				c-0.74,2.79-1.47,5.57-2.21,8.36c63.89-9.35,109.1-65.31,125.66-124.73C302.33,227.77,304.93,207.37,305,187
				c0.02-6.44-9.98-6.44-10,0c-0.21,61.77-26.84,128.12-82.3,160.15c-13.65,7.88-28.57,13.05-44.17,15.33
				c-3.86,0.56-4.62,5.95-2.21,8.36c6.4,6.4,12.8,12.8,19.2,19.2c1.18-2.85,2.36-5.69,3.54-8.54c-23.71,0-47.42,0-71.12,0
				c1.18,2.85,2.36,5.69,3.54,8.54c6.36-6.36,12.72-12.72,19.07-19.07c2.4-2.4,1.66-7.82-2.21-8.36
				c-46.85-6.5-83.97-39.77-105.13-80.82C8.98,234.78,4.71,177.82,19.36,127.22c13.01-44.94,42.47-87.13,86.1-106.6
				c41.31-18.43,89.05-10.35,123.99,17.63c38.58,30.9,60.15,79.58,64.6,128.13c0.63,6.86,0.92,13.74,0.94,20.63
				C295.02,193.43,305.02,193.45,305,187z"/>
		</g>
	</g>
	<g>
		<g>
			<path class="st7" d="M148.18,385.17c-5.07,17.26-8.62,35.31-8.15,53.38c0.21,7.91,1.19,15.91,3.26,23.56
				c2,7.39,5.72,13.93,8.33,21.07c8.47,23.13,2.49,47.31-12.75,66.09c-3.4,4.19-7.16,8.32-11.4,11.7
				c-5.03,4.01,2.08,11.04,7.07,7.07c11.46-9.13,20.48-22.48,25.9-35.94c4.91-12.19,6.36-25.39,4.29-38.36
				c-2.48-15.53-11.66-28.62-13.86-44.29c-2.9-20.65,1.14-41.83,6.95-61.62C159.64,381.64,149.99,379,148.18,385.17L148.18,385.17z"
				/>
		</g>
	</g>
	<g>
		<g>
			<path class="st8" d="M102.45,47.37c-16.1,7.81-29.17,21.54-39.71,35.7c-15.06,20.25-24.7,44.47-28.89,69.28
				c-0.9,5.32,1.41,10.77,6.98,12.3c4.8,1.32,11.4-1.63,12.3-6.98c3.88-22.95,12.36-44.62,26.11-63.47
				c4.88-6.68,10.81-13.09,17.14-18.65c3.57-3.14,4.17-3.63,7.83-6.09c2.66-1.79,5.43-3.41,8.32-4.81
				c4.86-2.36,6.16-9.28,3.59-13.68C113.23,45.99,107.33,45,102.45,47.37L102.45,47.37z"/>
		</g>
	</g>
</g>
</svg>
