<?xml version="1.0" encoding="utf-8"?>
<!-- Generator: Adobe Illustrator 23.0.1, SVG Export Plug-In . SVG Version: 6.00 Build 0)  -->
<svg version="1.1" xmlns="http://www.w3.org/2000/svg" xmlns:xlink="http://www.w3.org/1999/xlink" x="0px" y="0px"
	 viewBox="0 0 263 980" style="enable-background:new 0 0 263 980;" xml:space="preserve">
<style type="text/css">
	.st0{fill:#C3CCFF;}
	.st1{fill:#FC4040;stroke:#272727;stroke-width:10;stroke-miterlimit:10;}
	.st2{fill:#C9C9C9;stroke:#272727;stroke-width:10;stroke-miterlimit:10;}
	.st3{fill:#BA1717;}
	.st4{fill:none;stroke:#222222;stroke-width:10;stroke-miterlimit:10;}
	.st5{fill:#FF9D9D;}
	.st6{fill:#159327;stroke:#272727;stroke-width:10;stroke-miterlimit:10;}
	.st7{fill:#075410;}
	.st8{fill:#5BCE69;}
</style>
<g id="Слой_1">
</g>
<g id="Слой_2">
</g>
<g id="Слой_3">
	
		<rect x="-234.38" y="425.27" transform="matrix(8.812301e-04 -1 1 8.812301e-04 -418.9404 681.9077)" class="st1" width="732.32" height="250.68"/>
	
		<rect x="90.59" y="69.67" transform="matrix(8.812301e-04 -1 1 8.812301e-04 -19.321 274.9083)" class="st1" width="74.64" height="154.91"/>
	
		<rect x="98.34" y="868.18" transform="matrix(8.812301e-04 -1 1 8.812301e-04 -818.5375 1072.0148)" class="st1" width="57.74" height="154.91"/>
	<polygon class="st2" points="178.65,109.85 178.68,74.21 128.04,5.59 74.52,5.54 74.43,109.76 	"/>
	
		<rect x="-152.3" y="506.26" transform="matrix(8.812301e-04 -1 1 8.812301e-04 -347.8951 752.8504)" class="st3" width="710.21" height="88.53"/>
	<line class="st4" x1="253.34" y1="847.17" x2="9.7" y2="846.95"/>
	<g>
		<g>
			<path class="st5" d="M85.83,797.01c0.03-32.43,0.06-64.86,0.09-97.29c0-4.65,0.01-9.31,0.01-13.96c0.01-15.44-23.99-15.47-24,0
				c-0.03,32.43-0.06,64.86-0.09,97.29c0,4.65-0.01,9.31-0.01,13.96C61.81,812.46,85.81,812.48,85.83,797.01L85.83,797.01z"/>
		</g>
	</g>
	<g>
		<g>
			<path class="st5" d="M85.98,618.16c0.02-25.12,0.04-50.24,0.07-75.36c0.04-39.86,0.07-79.71,0.11-119.57
				c0.01-9.19,0.02-18.39,0.02-27.58c0.01-15.44-23.99-15.47-24,0c-0.02,25.12-0.04,50.24-0.07,75.36
				c-0.04,39.86-0.07,79.71-0.11,119.57c-0.01,9.19-0.02,18.39-0.02,27.58C61.97,633.6,85.97,633.62,85.98,618.16L85.98,618.16z"/>
		</g>
	</g>
</g>
<g id="Слой_4">
</g>
</svg>
